<svg xmlns="http://www.w3.org/2000/svg" viewBox="0 0 293.06 168.37"><defs><style>.cls-1{fill:#fff;}.cls-2{fill:#666;}.cls-3{fill:#444545;}.cls-4{font-size:37px;fill:#333;font-family:Bauhaus93, "Bauhaus 93";letter-spacing:0.2em;}</style></defs><g id="Layer_2" data-name="Layer 2"><g id="Time_matters_-_logo" data-name="Time matters - logo"><circle class="cls-1" cx="84.18" cy="85.18" r="80.74"/><path class="cls-2" d="M85.18,92.63a3.44,3.44,0,0,1-3.44-3.45V33.51a3.45,3.45,0,0,1,6.89,0V89.18A3.44,3.44,0,0,1,85.18,92.63Z"/><path class="cls-2" d="M84.8,85.22a3.45,3.45,0,0,1,3.07,5.58l-21.5,26.85A3.45,3.45,0,1,1,61,113.34l21.5-26.85A3.48,3.48,0,0,1,84.8,85.22Z"/><path class="cls-3" d="M157.2,109.46a77.32,77.32,0,1,1-7.75-66.6h8a84.14,84.14,0,1,0,7,66.6Z"/><text class="cls-4" transform="translate(118.84 73.02)">Time<tspan x="0" y="33">Matters</tspan></text></g></g></svg>